<svg xmlns="http://www.w3.org/2000/svg" viewBox="0 0 888 300">
  <path fill="none" stroke="#2E3440" stroke-width="2" stroke-miterlimit="10" d="M30.652 64.476h189.959v189.959H30.652z"/>
  <path fill="none" d="M182.568-254.435h98.566v122.887h-98.566z"/>
  <path fill="#2E3440" d="M132.651 195.993l34.86-71.118h3.361l34.859 71.118h-2.939l-33.6-68.599-33.601 68.599h-2.94zm-16 0l-71.12-34.859v-3.359l71.12-34.859v2.939l-68.6 33.6 68.6 33.6v2.938z"/>
  <path fill="none" d="M282.963 131.788h547.033v55.334H282.963z"/>
  <g fill="#2E3440">
    <path d="M332.144 157.993v25.202h-2.736V172.25h-.144c-2.52 7.489-10.369 12.169-19.441 12.169-15.553 0-24.194-11.881-24.194-26.642 0-14.546 8.785-27.219 24.266-27.219 10.585 0 19.586 6.409 21.386 17.138h-3.024c-2.376-8.856-8.929-14.401-18.29-14.401-13.897 0-21.17 11.665-21.17 24.482 0 13.104 7.057 23.906 21.17 23.906 12.241 0 19.946-8.354 19.441-20.954H310.47v-2.736h21.674zm8.708-26.21h3.168v51.412h-3.168v-51.412zm6.694 2.737v-2.736h39.388v2.736h-18.146v48.676h-3.168V134.52h-18.074zm96.484 11.952c-.36-8.784-6.984-13.177-16.489-13.177-5.833 0-14.113 2.448-14.113 10.945 0 8.28 8.784 9.648 17.497 11.448 8.785 1.801 17.57 4.033 17.57 14.258 0 10.657-10.225 14.473-18.074 14.473-12.024 0-21.818-4.968-21.674-18.217h3.168c-.648 11.232 8.353 15.481 18.505 15.481 6.192 0 14.906-2.809 14.906-11.737 0-8.713-8.785-10.225-17.57-12.025-8.713-1.8-17.498-3.888-17.498-13.681 0-9.865 9.145-13.682 17.282-13.682 10.729 0 19.153 4.608 19.657 15.913h-3.167zm6.259-11.952v-2.736h39.387v2.736h-18.145v48.676h-3.168V134.52h-18.074z"/>
    <path d="M527.98 131.783h3.529l-20.666 29.882v21.53h-3.168v-21.53l-20.521-29.882h3.6l18.578 27.218 18.648-27.218zm6.549 0h3.168v48.676h29.162v2.736h-32.33v-51.412zm70.922 48.676v2.736h-34.922v-51.412h34.563v2.736h-31.395v20.594h29.523v2.735h-29.523v22.61h31.754zm70.059-22.466v25.202h-2.736V172.25h-.145c-2.521 7.489-10.369 12.169-19.441 12.169-15.555 0-24.195-11.881-24.195-26.642 0-14.546 8.785-27.219 24.268-27.219 10.584 0 19.584 6.409 21.385 17.138h-3.023c-2.377-8.856-8.93-14.401-18.291-14.401-13.896 0-21.17 11.665-21.17 24.482 0 13.104 7.057 23.906 21.17 23.906 12.242 0 19.947-8.354 19.443-20.954h-18.938v-2.736h21.673zm11.875-26.21v30.818c0 6.192 1.297 19.082 16.129 19.082 12.602 0 16.85-7.417 16.85-19.082v-30.818h3.168v30.818c0 12.241-4.607 21.817-20.018 21.817-18.289 0-19.297-14.977-19.297-21.817v-30.818h3.168zm45.215 0h3.17v51.412h-3.17v-51.412zm12.24 0h16.85c18.361 0 23.762 12.601 23.762 25.634 0 14.545-7.416 25.778-23.904 25.778H744.84v-51.412zm3.17 48.676h13.824c9.576 0 20.449-5.257 20.449-23.042 0-21.025-13.465-22.897-21.098-22.897H748.01v45.939zm79.777 0v2.736h-34.924v-51.412h34.564v2.736h-31.395v20.594h29.521v2.735h-29.521v22.61h31.755z"/>
  </g>
  <path d="M255.611 80.8h601.737M255.611 238.11h601.737" fill="none" stroke="#2E3440" stroke-width="2" stroke-miterlimit="10"/>
</svg>
